<svg width="25" height="20" viewBox="0 0 25 20" fill="none" xmlns="http://www.w3.org/2000/svg">
<g clip-path="url(#clip0_214_43)">
<path d="M2.75786 2.60352C2.71069 1.24902 3.76602 0 5.19248 0H19.8093C21.2358 0 22.2911 1.24902 22.2439 2.60352C22.1986 3.90464 22.2575 5.59009 22.6816 6.96436C23.1072 8.34287 23.8248 9.21421 25 9.32617V10.5957C23.8248 10.7077 23.1072 11.579 22.6816 12.9575C22.2575 14.3318 22.1986 16.0172 22.2439 17.3184C22.2911 18.6729 21.2358 19.9219 19.8093 19.9219H5.19248C3.76602 19.9219 2.71069 18.6729 2.75791 17.3184C2.80317 16.0172 2.74434 14.3318 2.32012 12.9575C1.89463 11.579 1.17529 10.7077 0 10.5957V9.32617C1.17524 9.21421 1.89463 8.34287 2.32012 6.96436C2.74434 5.59009 2.80317 3.90464 2.75786 2.60352Z" fill="url(#paint0_linear_214_43)"/>
<path d="M13.0421 15.2567C15.3515 15.2567 16.7432 14.126 16.7432 12.2609C16.7432 10.8511 15.7502 9.8304 14.2758 9.66882V9.61008C15.359 9.43386 16.2091 8.42791 16.2091 7.30447C16.2091 5.70374 14.9453 4.66101 13.0195 4.66101H8.68652V15.2567H13.0421ZM10.3716 6.00476H12.6133C13.832 6.00476 14.524 6.54812 14.524 7.53206C14.524 8.5821 13.7191 9.16951 12.2598 9.16951H10.3716V6.00476ZM10.3716 13.913V10.4252H12.5982C14.193 10.4252 15.0205 11.0126 15.0205 12.1581C15.0205 13.3035 14.2156 13.913 12.696 13.913H10.3716Z" fill="url(#paint1_linear_214_43)" stroke="white"/>
</g>
<defs>
<linearGradient id="paint0_linear_214_43" x1="3.71479" y1="0.527247" x2="25.5605" y2="17.8684" gradientUnits="userSpaceOnUse">
<stop stop-color="#9013FE"/>
<stop offset="1" stop-color="#6610F2"/>
</linearGradient>
<linearGradient id="paint1_linear_214_43" x1="9.44858" y1="5.35842" x2="14.3317" y2="13.6168" gradientUnits="userSpaceOnUse">
<stop stop-color="white"/>
<stop offset="1" stop-color="#F1E5FC"/>
</linearGradient>
<clipPath id="clip0_214_43">
<rect width="25" height="19.9219" fill="white"/>
</clipPath>
</defs>
</svg>
