<svg width="26" height="39" viewBox="0 0 26 39" fill="none" xmlns="http://www.w3.org/2000/svg">
<g clip-path="url(#clip0_214_33)">
<path d="M13.2434 19.5544C13.2434 16.1378 16.0131 13.368 19.4298 13.368C22.8464 13.368 25.6162 16.1378 25.6162 19.5544C25.6162 22.9711 22.8464 25.7408 19.4298 25.7408C16.0131 25.7408 13.2434 22.9711 13.2434 19.5544Z" fill="#1ABCFE"/>
<path d="M0.870605 31.9272C0.870605 28.5106 3.64033 25.7408 7.05697 25.7408H13.2433V31.9272C13.2433 35.3439 10.4736 38.1136 7.05697 38.1136C3.64033 38.1136 0.870605 35.3439 0.870605 31.9272Z" fill="#0ACF83"/>
<path d="M13.2434 0.995361V13.3681H19.4298C22.8464 13.3681 25.6162 10.5984 25.6162 7.18173C25.6162 3.7651 22.8464 0.995361 19.4298 0.995361H13.2434Z" fill="#FF7262"/>
<path d="M0.870605 7.18173C0.870605 10.5984 3.64033 13.3681 7.05697 13.3681H13.2433V0.995361H7.05697C3.64033 0.995361 0.870605 3.76509 0.870605 7.18173Z" fill="#F24E1E"/>
<path d="M0.870605 19.5544C0.870605 22.9711 3.64033 25.7408 7.05697 25.7408H13.2433V13.368H7.05697C3.64033 13.368 0.870605 16.1378 0.870605 19.5544Z" fill="#A259FF"/>
</g>
<defs>
<clipPath id="clip0_214_33">
<rect width="25" height="37.5" fill="white" transform="translate(0.743408 0.804443)"/>
</clipPath>
</defs>
</svg>
